<?xml version="1.0" encoding="UTF-8"?>
<!DOCTYPE svg PUBLIC "-//W3C//DTD SVG 1.1//EN" "http://www.w3.org/Graphics/SVG/1.1/DTD/svg11.dtd">
<svg xmlns="http://www.w3.org/2000/svg" version="1.1" width="980px" height="622px" style="shape-rendering:geometricPrecision; text-rendering:geometricPrecision; image-rendering:optimizeQuality; fill-rule:evenodd; clip-rule:evenodd" xmlns:xlink="http://www.w3.org/1999/xlink">
<g><path style="opacity:1" fill="#fefefe" d="M 672.5,-0.5 C 677.167,-0.5 681.833,-0.5 686.5,-0.5C 714.291,5.63194 729.291,22.9653 731.5,51.5C 730.58,72.562 720.913,88.062 702.5,98C 681.323,102.544 660.323,107.878 639.5,114C 616.783,121.424 598.283,134.591 584,153.5C 574.133,169.963 570.799,187.629 574,206.5C 589.023,257.259 604.356,307.925 620,358.5C 623.903,375.092 624.403,391.759 621.5,408.5C 571.737,418.038 530.07,441.538 496.5,479C 488.35,484.528 480.016,484.861 471.5,480C 459.501,466.824 446.501,454.991 432.5,444.5C 432.027,443.094 431.027,442.427 429.5,442.5C 422.798,438.485 416.131,434.485 409.5,430.5C 409.027,429.094 408.027,428.427 406.5,428.5C 359.062,405.655 309.729,400.489 258.5,413C 229.302,421.264 202.969,434.764 179.5,453.5C 179.068,452.29 178.401,451.29 177.5,450.5C 181.159,420.515 193.826,395.181 215.5,374.5C 217.749,373.92 219.415,372.587 220.5,370.5C 220.833,369.5 221.5,368.833 222.5,368.5C 224.027,368.573 225.027,367.906 225.5,366.5C 225.5,365.833 225.833,365.5 226.5,365.5C 228.027,365.573 229.027,364.906 229.5,363.5C 231.027,363.573 232.027,362.906 232.5,361.5C 241.767,355.368 251.767,350.535 262.5,347C 324.909,325.197 387.242,303.197 449.5,281C 460.001,277.109 470.668,273.942 481.5,271.5C 482.386,272.776 483.386,272.776 484.5,271.5C 484.376,270.893 484.043,270.56 483.5,270.5C 478.893,253.735 474.726,236.735 471,219.5C 465.494,178.367 472.827,139.7 493,103.5C 495.61,99.2576 498.443,95.2576 501.5,91.5C 502.906,91.0269 503.573,90.0269 503.5,88.5C 505.793,84.2424 508.793,80.5758 512.5,77.5C 514.587,76.4154 515.92,74.7488 516.5,72.5C 519.5,68.8333 522.833,65.5 526.5,62.5C 528.749,61.9202 530.415,60.5869 531.5,58.5C 533.549,55.4503 536.216,53.117 539.5,51.5C 541.027,51.573 542.027,50.9063 542.5,49.5C 546.302,45.7629 550.635,42.7629 555.5,40.5C 557.027,40.573 558.027,39.9063 558.5,38.5C 558.842,37.6618 559.508,37.3284 560.5,37.5C 562.027,37.573 563.027,36.9063 563.5,35.5C 565.849,33.659 568.515,32.3257 571.5,31.5C 573.819,31.0075 575.819,30.0075 577.5,28.5C 589.284,22.282 601.618,17.1154 614.5,13C 633.712,7.39517 653.045,2.89517 672.5,-0.5 Z"/></g>
<g><path style="opacity:1" fill="#efefef" d="M 577.5,28.5 C 575.819,30.0075 573.819,31.0075 571.5,31.5C 572.911,29.461 574.911,28.461 577.5,28.5 Z"/></g>
<g><path style="opacity:1" fill="#e9e9e9" d="M 563.5,35.5 C 563.027,36.9063 562.027,37.573 560.5,37.5C 560.973,36.0937 561.973,35.427 563.5,35.5 Z"/></g>
<g><path style="opacity:1" fill="#eaeaea" d="M 558.5,38.5 C 558.027,39.9063 557.027,40.573 555.5,40.5C 555.973,39.0937 556.973,38.427 558.5,38.5 Z"/></g>
<g><path style="opacity:1" fill="#ebebeb" d="M 542.5,49.5 C 542.027,50.9063 541.027,51.573 539.5,51.5C 539.973,50.0937 540.973,49.427 542.5,49.5 Z"/></g>
<g><path style="opacity:1" fill="#efefef" d="M 531.5,58.5 C 530.415,60.5869 528.749,61.9202 526.5,62.5C 527.585,60.4131 529.251,59.0798 531.5,58.5 Z"/></g>
<g><path style="opacity:1" fill="#eeeeee" d="M 516.5,72.5 C 515.92,74.7488 514.587,76.4154 512.5,77.5C 513.08,75.2512 514.413,73.5846 516.5,72.5 Z"/></g>
<g><path style="opacity:1" fill="#ebebeb" d="M 503.5,88.5 C 503.573,90.0269 502.906,91.0269 501.5,91.5C 501.427,89.9731 502.094,88.9731 503.5,88.5 Z"/></g>
<g><path style="opacity:1" fill="#fefefe" d="M 844.5,179.5 C 847.5,183.167 850.833,186.5 854.5,189.5C 857.55,191.549 859.883,194.216 861.5,197.5C 861.427,199.027 862.094,200.027 863.5,200.5C 865.326,202.147 866.66,204.147 867.5,206.5C 867.427,208.027 868.094,209.027 869.5,209.5C 892.479,250.607 893.312,292.273 872,334.5C 841.967,383.598 798.134,405.098 740.5,399C 719.926,396.037 701.593,388.204 685.5,375.5C 685.027,374.094 684.027,373.427 682.5,373.5C 643.243,340.917 627.743,299.25 636,248.5C 639.203,232.446 645.37,217.78 654.5,204.5C 655.906,204.027 656.573,203.027 656.5,201.5C 660.776,194.891 665.776,188.891 671.5,183.5C 674.089,182.581 676.089,180.914 677.5,178.5C 694.441,162.882 714.441,153.049 737.5,149C 769.06,143.649 798.726,148.983 826.5,165C 833.267,168.939 839.267,173.772 844.5,179.5 Z"/></g>
<g><path style="opacity:1" fill="#efefef" d="M 844.5,179.5 C 848.833,181.833 852.167,185.167 854.5,189.5C 850.833,186.5 847.5,183.167 844.5,179.5 Z"/></g>
<g><path style="opacity:1" fill="#f1f1f1" d="M 677.5,178.5 C 676.089,180.914 674.089,182.581 671.5,183.5C 672.911,181.086 674.911,179.419 677.5,178.5 Z"/></g>
<g><path style="opacity:1" fill="#ebebeb" d="M 861.5,197.5 C 862.906,197.973 863.573,198.973 863.5,200.5C 862.094,200.027 861.427,199.027 861.5,197.5 Z"/></g>
<g><path style="opacity:1" fill="#ebebeb" d="M 656.5,201.5 C 656.573,203.027 655.906,204.027 654.5,204.5C 654.427,202.973 655.094,201.973 656.5,201.5 Z"/></g>
<g><path style="opacity:1" fill="#ebebeb" d="M 867.5,206.5 C 868.906,206.973 869.573,207.973 869.5,209.5C 868.094,209.027 867.427,208.027 867.5,206.5 Z"/></g>
<g><path style="opacity:1" fill="#e9e9e9" d="M 483.5,270.5 C 484.043,270.56 484.376,270.893 484.5,271.5C 483.386,272.776 482.386,272.776 481.5,271.5C 482.492,271.672 483.158,271.338 483.5,270.5 Z"/></g>
<g><path style="opacity:1" fill="#ebebeb" d="M 232.5,361.5 C 232.027,362.906 231.027,363.573 229.5,363.5C 229.973,362.094 230.973,361.427 232.5,361.5 Z"/></g>
<g><path style="opacity:1" fill="#eaeaea" d="M 229.5,363.5 C 229.027,364.906 228.027,365.573 226.5,365.5C 226.973,364.094 227.973,363.427 229.5,363.5 Z"/></g>
<g><path style="opacity:1" fill="#ebebeb" d="M 225.5,366.5 C 225.027,367.906 224.027,368.573 222.5,368.5C 222.973,367.094 223.973,366.427 225.5,366.5 Z"/></g>
<g><path style="opacity:1" fill="#ededed" d="M 220.5,370.5 C 219.415,372.587 217.749,373.92 215.5,374.5C 216.585,372.413 218.251,371.08 220.5,370.5 Z"/></g>
<g><path style="opacity:1" fill="#ebebeb" d="M 682.5,373.5 C 684.027,373.427 685.027,374.094 685.5,375.5C 683.973,375.573 682.973,374.906 682.5,373.5 Z"/></g>
<g><path style="opacity:1" fill="#ebebeb" d="M 406.5,428.5 C 408.027,428.427 409.027,429.094 409.5,430.5C 407.973,430.573 406.973,429.906 406.5,428.5 Z"/></g>
<g><path style="opacity:1" fill="#fefefe" d="M 428.5,484.5 C 432.833,489.5 437.5,494.167 442.5,498.5C 462.637,517.66 485.304,521.327 510.5,509.5C 512.027,509.573 513.027,508.906 513.5,507.5C 515.027,507.573 516.027,506.906 516.5,505.5C 523.167,498.167 530.167,491.167 537.5,484.5C 539.749,483.92 541.415,482.587 542.5,480.5C 545.429,477.364 548.762,474.697 552.5,472.5C 554.027,472.573 555.027,471.906 555.5,470.5C 559.323,467.084 563.657,464.418 568.5,462.5C 570.027,462.573 571.027,461.906 571.5,460.5C 613.779,438.342 658.113,433.509 704.5,446C 732.198,454.26 756.198,468.427 776.5,488.5C 778.167,490.833 780.167,492.833 782.5,494.5C 790.241,503.534 799.574,510.368 810.5,515C 833.8,521.624 853.8,516.124 870.5,498.5C 875.167,494.5 879.5,490.167 883.5,485.5C 885.88,482.119 888.88,479.453 892.5,477.5C 894.027,477.573 895.027,476.906 895.5,475.5C 895.5,474.833 895.833,474.5 896.5,474.5C 898.027,474.573 899.027,473.906 899.5,472.5C 902.65,469.421 906.317,467.087 910.5,465.5C 912.027,465.573 913.027,464.906 913.5,463.5C 934.016,451.995 956.016,444.661 979.5,441.5C 979.5,476.5 979.5,511.5 979.5,546.5C 971.964,548.935 964.964,552.435 958.5,557C 948.503,565.997 938.836,575.33 929.5,585C 903.173,606.274 873.173,618.441 839.5,621.5C 831.833,621.5 824.167,621.5 816.5,621.5C 788.371,618.902 762.704,609.568 739.5,593.5C 739.027,592.094 738.027,591.427 736.5,591.5C 731.721,589.109 727.721,585.776 724.5,581.5C 720.5,576.833 716.167,572.5 711.5,568.5C 684.768,541.323 654.101,535.823 619.5,552C 614.322,555.422 609.322,559.089 604.5,563C 567.532,605.47 520.866,624.137 464.5,619C 444.944,616.646 426.611,610.813 409.5,601.5C 409.027,600.094 408.027,599.427 406.5,599.5C 401.657,597.582 397.323,594.916 393.5,591.5C 393.027,590.094 392.027,589.427 390.5,589.5C 389.833,589.5 389.5,589.167 389.5,588.5C 389.027,587.094 388.027,586.427 386.5,586.5C 382.209,583.877 378.543,580.544 375.5,576.5C 373.833,574.167 371.833,572.167 369.5,570.5C 363.772,564.767 357.772,559.433 351.5,554.5C 351.027,553.094 350.027,552.427 348.5,552.5C 320.011,537.782 292.677,539.615 266.5,558C 258.887,565.613 251.221,573.279 243.5,581C 194.544,620.855 140.21,630.188 80.5,609C 72.6638,605.917 65.3305,602.084 58.5,597.5C 58.0269,596.094 57.0269,595.427 55.5,595.5C 47.0746,591.283 39.7413,585.616 33.5,578.5C 30.8333,575.167 27.8333,572.167 24.5,569.5C 17.0188,562.015 8.68544,555.682 -0.5,550.5C -0.5,514.5 -0.5,478.5 -0.5,442.5C 36.5294,449.843 68.1961,466.843 94.5,493.5C 95.7573,496.427 97.7573,498.761 100.5,500.5C 121.842,518.954 144.842,521.287 169.5,507.5C 171.027,507.573 172.027,506.906 172.5,505.5C 181.199,495.8 190.533,486.8 200.5,478.5C 202.027,478.573 203.027,477.906 203.5,476.5C 204.579,474.457 206.246,473.124 208.5,472.5C 210.027,472.573 211.027,471.906 211.5,470.5C 246.582,446.144 285.582,435.977 328.5,440C 367.017,443.77 400.35,458.603 428.5,484.5 Z"/></g>
<g><path style="opacity:1" fill="#ececec" d="M 429.5,442.5 C 431.027,442.427 432.027,443.094 432.5,444.5C 430.973,444.573 429.973,443.906 429.5,442.5 Z"/></g>
<g><path style="opacity:1" fill="#e2e2e2" d="M 177.5,450.5 C 178.401,451.29 179.068,452.29 179.5,453.5C 178.883,453.611 178.383,453.944 178,454.5C 177.51,453.207 177.343,451.873 177.5,450.5 Z"/></g>
<g><path style="opacity:1" fill="#ebebeb" d="M 571.5,460.5 C 571.027,461.906 570.027,462.573 568.5,462.5C 568.973,461.094 569.973,460.427 571.5,460.5 Z"/></g>
<g><path style="opacity:1" fill="#ebebeb" d="M 913.5,463.5 C 913.027,464.906 912.027,465.573 910.5,465.5C 910.973,464.094 911.973,463.427 913.5,463.5 Z"/></g>
<g><path style="opacity:1" fill="#eaeaea" d="M 211.5,470.5 C 211.027,471.906 210.027,472.573 208.5,472.5C 208.973,471.094 209.973,470.427 211.5,470.5 Z"/></g>
<g><path style="opacity:1" fill="#eaeaea" d="M 555.5,470.5 C 555.027,471.906 554.027,472.573 552.5,472.5C 552.973,471.094 553.973,470.427 555.5,470.5 Z"/></g>
<g><path style="opacity:1" fill="#ebebeb" d="M 899.5,472.5 C 899.027,473.906 898.027,474.573 896.5,474.5C 896.973,473.094 897.973,472.427 899.5,472.5 Z"/></g>
<g><path style="opacity:1" fill="#ebebeb" d="M 895.5,475.5 C 895.027,476.906 894.027,477.573 892.5,477.5C 892.973,476.094 893.973,475.427 895.5,475.5 Z"/></g>
<g><path style="opacity:1" fill="#ebebeb" d="M 203.5,476.5 C 203.027,477.906 202.027,478.573 200.5,478.5C 200.973,477.094 201.973,476.427 203.5,476.5 Z"/></g>
<g><path style="opacity:1" fill="#eeeeee" d="M 542.5,480.5 C 541.415,482.587 539.749,483.92 537.5,484.5C 538.585,482.413 540.251,481.08 542.5,480.5 Z"/></g>
<g><path style="opacity:1" fill="#f1f1f1" d="M 428.5,484.5 C 434.167,488.167 438.833,492.833 442.5,498.5C 437.5,494.167 432.833,489.5 428.5,484.5 Z"/></g>
<g><path style="opacity:1" fill="#ededed" d="M 776.5,488.5 C 779.5,489.5 781.5,491.5 782.5,494.5C 780.167,492.833 778.167,490.833 776.5,488.5 Z"/></g>
<g><path style="opacity:1" fill="#f0f0f0" d="M 883.5,485.5 C 879.5,490.167 875.167,494.5 870.5,498.5C 873.833,493.167 878.167,488.833 883.5,485.5 Z"/></g>
<g><path style="opacity:1" fill="#f0f0f0" d="M 94.5,493.5 C 97.2427,495.239 99.2427,497.573 100.5,500.5C 97.7573,498.761 95.7573,496.427 94.5,493.5 Z"/></g>
<g><path style="opacity:1" fill="#eaeaea" d="M 172.5,505.5 C 172.027,506.906 171.027,507.573 169.5,507.5C 169.973,506.094 170.973,505.427 172.5,505.5 Z"/></g>
<g><path style="opacity:1" fill="#ececec" d="M 516.5,505.5 C 516.027,506.906 515.027,507.573 513.5,507.5C 513.973,506.094 514.973,505.427 516.5,505.5 Z"/></g>
<g><path style="opacity:1" fill="#eaeaea" d="M 513.5,507.5 C 513.027,508.906 512.027,509.573 510.5,509.5C 510.973,508.094 511.973,507.427 513.5,507.5 Z"/></g>
<g><path style="opacity:1" fill="#eaeaea" d="M 348.5,552.5 C 350.027,552.427 351.027,553.094 351.5,554.5C 349.973,554.573 348.973,553.906 348.5,552.5 Z"/></g>
<g><path style="opacity:1" fill="#eeeeee" d="M 24.5,569.5 C 27.8333,572.167 30.8333,575.167 33.5,578.5C 29.5,576.5 26.5,573.5 24.5,569.5 Z"/></g>
<g><path style="opacity:1" fill="#ededed" d="M 369.5,570.5 C 371.833,572.167 373.833,574.167 375.5,576.5C 372.5,575.5 370.5,573.5 369.5,570.5 Z"/></g>
<g><path style="opacity:1" fill="#f1f1f1" d="M 711.5,568.5 C 716.167,572.5 720.5,576.833 724.5,581.5C 719.167,578.167 714.833,573.833 711.5,568.5 Z"/></g>
<g><path style="opacity:1" fill="#ebebeb" d="M 386.5,586.5 C 388.027,586.427 389.027,587.094 389.5,588.5C 387.973,588.573 386.973,587.906 386.5,586.5 Z"/></g>
<g><path style="opacity:1" fill="#ebebeb" d="M 390.5,589.5 C 392.027,589.427 393.027,590.094 393.5,591.5C 391.973,591.573 390.973,590.906 390.5,589.5 Z"/></g>
<g><path style="opacity:1" fill="#eaeaea" d="M 736.5,591.5 C 738.027,591.427 739.027,592.094 739.5,593.5C 737.973,593.573 736.973,592.906 736.5,591.5 Z"/></g>
<g><path style="opacity:1" fill="#eaeaea" d="M 55.5,595.5 C 57.0269,595.427 58.0269,596.094 58.5,597.5C 56.9731,597.573 55.9731,596.906 55.5,595.5 Z"/></g>
<g><path style="opacity:1" fill="#ebebeb" d="M 406.5,599.5 C 408.027,599.427 409.027,600.094 409.5,601.5C 407.973,601.573 406.973,600.906 406.5,599.5 Z"/></g>
</svg>
